# xmcd CD database file
#
# Track frame offsets:
#	150
#	21495
#	42097
#	65557
#	85700
#	103895
#	120577
#	137155
#	156365
#
# Disc length: 2365 seconds
#
# Revision: 0
# Processed by: cddbd v1.5.1PL2 Copyright (c) Steve Scherf et al.
# Submitted via: CDex 1.51
#
DISCID=79093b09
DTITLE=Frank White - One More Lonly Night
DYEAR=1988
DGENRE=Blues
TTITLE0=One More Lonly Night
TTITLE1=Takin' The Easy Way Out
TTITLE2=Lousiana 1927
TTITLE3=You Made A Promise
TTITLE4=Love Sweet Love
TTITLE5=Don't Walk Away
TTITLE6=Doctor Ryhthm
TTITLE7=The Preacher
TTITLE8=I Took A Chance
EXTD=YEAR: 1988
EXTT0=
EXTT1=
EXTT2=
EXTT3=
EXTT4=
EXTT5=
EXTT6=
EXTT7=
EXTT8=
PLAYORDER=
